<?xml version="1.0" encoding="utf-8"?>
<!-- Generator: Adobe Illustrator 23.0.3, SVG Export Plug-In . SVG Version: 6.00 Build 0)  -->
<svg xmlns:xlink="http://www.w3.org/1999/xlink" version="1.1" id="Layer_1" xmlns="http://www.w3.org/2000/svg" x="0px"
     y="0px"
     viewBox="57.585 42.861 6.331 4.669" enable-background="new 57.585 42.861 6.331 4.669" xml:space="preserve">
<g>
	<g>
		<g>
			<defs>
				<rect id="SVGID_1_" x="57.585" y="42.861" width="6.331" height="4.669"/>
			</defs>
			<clipPath id="SVGID_2_">
				<use xlink:href="#SVGID_1_" overflow="visible"/>
			</clipPath>
			<path clip-path="url(#SVGID_2_)" fill="#DA1F26" d="M63.915,45.091v0.208c-0.002,0.011-0.004,0.022-0.006,0.034
				c-0.011,0.091-0.018,0.182-0.033,0.272c-0.049,0.292-0.154,0.564-0.31,0.816c-0.237,0.382-0.558,0.673-0.962,0.871
				c-0.234,0.116-0.482,0.189-0.742,0.219c-0.057,0.007-0.115,0.013-0.172,0.019h-2.224c-0.011-0.002-0.022-0.005-0.034-0.006
				c-0.224-0.014-0.44-0.065-0.646-0.155c-0.448-0.196-0.782-0.513-1-0.95c-0.097-0.194-0.159-0.399-0.185-0.615
				c-0.006-0.052-0.012-0.104-0.019-0.156c0-0.067,0-0.135,0-0.202c0.002-0.011,0.005-0.022,0.006-0.034
				c0.012-0.194,0.051-0.383,0.122-0.564c0.189-0.488,0.518-0.85,0.986-1.084c0.243-0.122,0.501-0.185,0.772-0.2
				c0.132-0.007,0.265,0.001,0.397,0.018c0.012,0.002,0.029-0.004,0.037-0.012c0.189-0.193,0.405-0.351,0.648-0.47
				c0.236-0.116,0.484-0.19,0.745-0.22c0.062-0.007,0.123-0.013,0.185-0.019h0.19c0.012,0.002,0.025,0.004,0.037,0.006
				c0.094,0.011,0.188,0.018,0.281,0.033c0.29,0.049,0.561,0.153,0.811,0.308c0.384,0.237,0.676,0.559,0.875,0.963
				c0.116,0.235,0.189,0.482,0.219,0.742C63.903,44.972,63.909,45.032,63.915,45.091 M60.376,43.742
				c0.004,0.005,0.005,0.007,0.006,0.008c0.131,0.064,0.254,0.14,0.372,0.225c0.007,0.005,0.026,0.003,0.035-0.003
				c0.322-0.204,0.672-0.275,1.047-0.208c0.368,0.065,0.667,0.249,0.896,0.543c0.259,0.332,0.358,0.708,0.286,1.126
				c-0.048,0.28-0.16,0.532-0.351,0.742c-0.348,0.384-0.784,0.543-1.297,0.475c-0.316-0.041-0.589-0.178-0.814-0.406
				c-0.29-0.293-0.581-0.583-0.872-0.875c-0.039-0.039-0.082-0.07-0.138-0.077c-0.097-0.012-0.186,0.037-0.228,0.124
				c-0.038,0.078-0.033,0.166,0.049,0.246c0.324,0.318,0.645,0.639,0.968,0.957c0.055,0.054,0.115,0.106,0.178,0.151
				c0.236,0.172,0.503,0.266,0.791,0.305c0.226,0.03,0.451,0.024,0.674-0.027c0.425-0.096,0.778-0.313,1.055-0.648
				c0.229-0.277,0.368-0.595,0.416-0.952c0.028-0.205,0.022-0.409-0.017-0.612c-0.064-0.33-0.204-0.625-0.427-0.876
				c-0.427-0.479-0.963-0.693-1.602-0.645c-0.246,0.018-0.478,0.091-0.697,0.205C60.589,43.583,60.479,43.656,60.376,43.742
				 M60.219,47.086c-0.012-0.011-0.019-0.018-0.026-0.025c-0.132-0.125-0.266-0.249-0.396-0.376
				c-0.025-0.024-0.049-0.036-0.084-0.036c-0.132,0.003-0.265,0.004-0.396-0.026c-0.649-0.147-1.026-0.853-0.787-1.474
				c0.189-0.49,0.711-0.788,1.226-0.696c0.231,0.041,0.434,0.139,0.6,0.311c0.203,0.209,0.412,0.413,0.617,0.62
				c0.047,0.047,0.1,0.069,0.165,0.06c0.084-0.012,0.15-0.052,0.18-0.134c0.03-0.081,0.015-0.157-0.046-0.219
				c-0.215-0.218-0.425-0.442-0.649-0.65c-0.434-0.405-0.947-0.526-1.513-0.353c-0.762,0.231-1.208,1.018-1.034,1.795
				c0.159,0.707,0.777,1.204,1.501,1.204c0.202,0,0.404,0,0.606,0C60.194,47.088,60.204,47.087,60.219,47.086"/>
		</g>
	</g>
</g>
</svg>
